REM GENRE "Pop"
REM DATE 1981
PERFORMER "Владимир Высоцкий"
TITLE "ЯК-Истребитель. Дом Хрустальный. Надежда. Еще Не Вечер"
FILE "Владимир Высоцкий - ЯК-Истребитель. Дом Хрустальный. Надежда. Еще Не Вечер.flac" WAVE
  TRACK 01 AUDIO
    TITLE "ЯК-Истребитель"
    INDEX 01 00:00:00
  TRACK 02 AUDIO
    TITLE "Дом Хрустальный"
    INDEX 01 03:22:00
  TRACK 03 AUDIO
    TITLE "Надежда"
    INDEX 01 05:47:38
  TRACK 04 AUDIO
    TITLE "Еще Не Вечер"
    INDEX 01 08:36:07
